<mxfile host="65bd71144e">
    <diagram id="MKuSY8VSyavK2Ai-hcvc" name="Page-1">
        <mxGraphModel dx="-374" dy="832" grid="1" gridSize="10" guides="1" tooltips="1" connect="1" arrows="1" fold="1" page="1" pageScale="1" pageWidth="850" pageHeight="1100" math="0" shadow="0">
            <root>
                <mxCell id="0"/>
                <mxCell id="1" parent="0"/>
                <mxCell id="431" value="$STATEMACHINE : MySm" style="shape=swimlane;rotatable=0;align=center;verticalAlign=top;fontFamily=Lucida Console;startSize=30;fontSize=14;fontStyle=1;fontColor=#FAFAFA;fillColor=#545454;swimlaneFillColor=default;rounded=1;arcSize=15;absoluteArcSize=1;strokeColor=rgb(240, 240, 240);" parent="1" vertex="1">
                    <mxGeometry x="1720" y="40" width="1570" height="880" as="geometry"/>
                </mxCell>
                <mxCell id="432" value=" " style="fontFamily=Lucida Console;align=left;verticalAlign=top;fillColor=none;gradientColor=none;strokeColor=none;rounded=0;spacingLeft=4;resizable=0;movable=0;deletable=0;rotatable=0;autosize=1;fontSize=12;fontColor=rgb(240, 240, 240);" parent="431" vertex="1" connectable="0">
                    <mxGeometry y="30" width="30" height="20" as="geometry"/>
                </mxCell>
                <mxCell id="389" value="FOOD" style="shape=swimlane;rotatable=0;align=center;verticalAlign=top;fontFamily=Lucida Console;startSize=30;fontSize=14;fontStyle=1;fontColor=#FAFAFA;fillColor=#545454;swimlaneFillColor=default;rounded=1;arcSize=15;absoluteArcSize=1;" parent="431" vertex="1">
                    <mxGeometry x="140" y="250" width="170" height="60" as="geometry"/>
                </mxCell>
                <mxCell id="390" value="FOOD" style="fontFamily=Lucida Console;align=left;verticalAlign=top;fillColor=none;gradientColor=none;strokeColor=none;rounded=0;spacingLeft=4;resizable=0;movable=0;deletable=0;rotatable=0;autosize=1;" parent="389" vertex="1" connectable="0">
                    <mxGeometry y="30" width="50" height="30" as="geometry"/>
                </mxCell>
                <mxCell id="392" value="NONE" style="shape=swimlane;rotatable=0;align=center;verticalAlign=top;fontFamily=Lucida Console;startSize=30;fontSize=14;fontStyle=1;fontColor=#000000;fillColor=#fa6800;swimlaneFillColor=default;rounded=1;arcSize=15;absoluteArcSize=1;strokeColor=#C73500;" parent="431" vertex="1">
                    <mxGeometry x="50" y="450" width="170" height="60" as="geometry"/>
                </mxCell>
                <mxCell id="393" value="HOT__NONE" style="fontFamily=Lucida Console;align=left;verticalAlign=top;fillColor=none;gradientColor=none;strokeColor=none;rounded=0;spacingLeft=4;resizable=0;movable=0;deletable=0;rotatable=0;autosize=1;" parent="392" vertex="1" connectable="0">
                    <mxGeometry y="30" width="90" height="30" as="geometry"/>
                </mxCell>
                <mxCell id="394" style="edgeStyle=none;html=1;exitX=0.5;exitY=0;exitDx=0;exitDy=0;entryX=0.25;entryY=1;entryDx=0;entryDy=0;" parent="431" source="395" target="389" edge="1">
                    <mxGeometry relative="1" as="geometry"/>
                </mxCell>
                <mxCell id="395" value="HOT" style="shape=swimlane;rotatable=0;align=center;verticalAlign=top;fontFamily=Lucida Console;startSize=30;fontSize=14;fontStyle=1;fontColor=#FAFAFA;fillColor=#545454;swimlaneFillColor=default;rounded=1;arcSize=15;absoluteArcSize=1;" parent="431" vertex="1">
                    <mxGeometry x="50" y="350" width="170" height="60" as="geometry"/>
                </mxCell>
                <mxCell id="396" value="HOT" style="fontFamily=Lucida Console;align=left;verticalAlign=top;fillColor=none;gradientColor=none;strokeColor=none;rounded=0;spacingLeft=4;resizable=0;movable=0;deletable=0;rotatable=0;autosize=1;" parent="395" vertex="1" connectable="0">
                    <mxGeometry y="30" width="50" height="30" as="geometry"/>
                </mxCell>
                <mxCell id="391" style="edgeStyle=none;html=1;exitX=0.5;exitY=0;exitDx=0;exitDy=0;entryX=0.5;entryY=1;entryDx=0;entryDy=0;" parent="431" source="392" target="395" edge="1">
                    <mxGeometry relative="1" as="geometry"/>
                </mxCell>
                <mxCell id="397" style="edgeStyle=none;html=1;exitX=0.5;exitY=0;exitDx=0;exitDy=0;entryX=0.75;entryY=1;entryDx=0;entryDy=0;" parent="431" source="398" target="389" edge="1">
                    <mxGeometry relative="1" as="geometry"/>
                </mxCell>
                <mxCell id="398" value="COLD" style="shape=swimlane;rotatable=0;align=center;verticalAlign=top;fontFamily=Lucida Console;startSize=30;fontSize=14;fontStyle=1;fontColor=#000000;fillColor=#e3c800;swimlaneFillColor=default;rounded=1;arcSize=15;absoluteArcSize=1;strokeColor=#B09500;" parent="431" vertex="1">
                    <mxGeometry x="260" y="350" width="170" height="60" as="geometry"/>
                </mxCell>
                <mxCell id="399" value="FOOD__COLD" style="fontFamily=Lucida Console;align=left;verticalAlign=top;fillColor=none;gradientColor=none;strokeColor=none;rounded=0;spacingLeft=4;resizable=0;movable=0;deletable=0;rotatable=0;autosize=1;" parent="398" vertex="1" connectable="0">
                    <mxGeometry y="30" width="100" height="30" as="geometry"/>
                </mxCell>
                <mxCell id="400" style="edgeStyle=none;html=1;exitX=0.5;exitY=0;exitDx=0;exitDy=0;entryX=0.5;entryY=1;entryDx=0;entryDy=0;" parent="431" source="401" target="398" edge="1">
                    <mxGeometry relative="1" as="geometry"/>
                </mxCell>
                <mxCell id="401" value="NONE" style="shape=swimlane;rotatable=0;align=center;verticalAlign=top;fontFamily=Lucida Console;startSize=30;fontSize=14;fontStyle=1;fontColor=#000000;fillColor=#fa6800;swimlaneFillColor=default;rounded=1;arcSize=15;absoluteArcSize=1;strokeColor=#C73500;" parent="431" vertex="1">
                    <mxGeometry x="260" y="450" width="170" height="60" as="geometry"/>
                </mxCell>
                <mxCell id="402" value="FOOD__COLD__NONE" style="fontFamily=Lucida Console;align=left;verticalAlign=top;fillColor=none;gradientColor=none;strokeColor=none;rounded=0;spacingLeft=4;resizable=0;movable=0;deletable=0;rotatable=0;autosize=1;" parent="401" vertex="1" connectable="0">
                    <mxGeometry y="30" width="140" height="30" as="geometry"/>
                </mxCell>
                <mxCell id="404" value="DRINK" style="shape=swimlane;rotatable=0;align=center;verticalAlign=top;fontFamily=Lucida Console;startSize=30;fontSize=14;fontStyle=1;fontColor=#FAFAFA;fillColor=#545454;swimlaneFillColor=default;rounded=1;arcSize=15;absoluteArcSize=1;" parent="431" vertex="1">
                    <mxGeometry x="480" y="250" width="170" height="60" as="geometry"/>
                </mxCell>
                <mxCell id="405" value="DRINK" style="fontFamily=Lucida Console;align=left;verticalAlign=top;fillColor=none;gradientColor=none;strokeColor=none;rounded=0;spacingLeft=4;resizable=0;movable=0;deletable=0;rotatable=0;autosize=1;" parent="404" vertex="1" connectable="0">
                    <mxGeometry y="30" width="60" height="30" as="geometry"/>
                </mxCell>
                <mxCell id="407" value="NONE" style="shape=swimlane;rotatable=0;align=center;verticalAlign=top;fontFamily=Lucida Console;startSize=30;fontSize=14;fontStyle=1;fontColor=#ffffff;fillColor=#1ba1e2;swimlaneFillColor=default;rounded=1;arcSize=15;absoluteArcSize=1;strokeColor=#006EAF;" parent="431" vertex="1">
                    <mxGeometry x="700" y="550" width="170" height="60" as="geometry"/>
                </mxCell>
                <mxCell id="408" value="BOOZE__NONE" style="fontFamily=Lucida Console;align=left;verticalAlign=top;fillColor=none;gradientColor=none;strokeColor=none;rounded=0;spacingLeft=4;resizable=0;movable=0;deletable=0;rotatable=0;autosize=1;" parent="407" vertex="1" connectable="0">
                    <mxGeometry y="30" width="110" height="30" as="geometry"/>
                </mxCell>
                <mxCell id="409" value="FOOD_BEV" style="shape=swimlane;rotatable=0;align=center;verticalAlign=top;fontFamily=Lucida Console;startSize=30;fontSize=14;fontStyle=1;fontColor=#FAFAFA;fillColor=#545454;swimlaneFillColor=default;rounded=1;arcSize=15;absoluteArcSize=1;" parent="431" vertex="1">
                    <mxGeometry x="480" y="110" width="170" height="60" as="geometry"/>
                </mxCell>
                <mxCell id="410" value="FOOD_BEV" style="fontFamily=Lucida Console;align=left;verticalAlign=top;fillColor=none;gradientColor=none;strokeColor=none;rounded=0;spacingLeft=4;resizable=0;movable=0;deletable=0;rotatable=0;autosize=1;" parent="409" vertex="1" connectable="0">
                    <mxGeometry y="30" width="80" height="30" as="geometry"/>
                </mxCell>
                <mxCell id="388" style="edgeStyle=none;html=1;exitX=0.5;exitY=0;exitDx=0;exitDy=0;entryX=0;entryY=0.5;entryDx=0;entryDy=0;" parent="431" source="389" target="409" edge="1">
                    <mxGeometry relative="1" as="geometry"/>
                </mxCell>
                <mxCell id="403" style="edgeStyle=none;html=1;exitX=0.5;exitY=0;exitDx=0;exitDy=0;entryX=0.5;entryY=1;entryDx=0;entryDy=0;" parent="431" source="404" target="409" edge="1">
                    <mxGeometry relative="1" as="geometry"/>
                </mxCell>
                <mxCell id="411" style="edgeStyle=none;html=1;exitX=0.5;exitY=0;exitDx=0;exitDy=0;entryX=0.5;entryY=1;entryDx=0;entryDy=0;" parent="431" source="412" target="404" edge="1">
                    <mxGeometry relative="1" as="geometry"/>
                </mxCell>
                <mxCell id="412" value="COLD" style="shape=swimlane;rotatable=0;align=center;verticalAlign=top;fontFamily=Lucida Console;startSize=30;fontSize=14;fontStyle=1;fontColor=#000000;fillColor=#e3c800;swimlaneFillColor=default;rounded=1;arcSize=15;absoluteArcSize=1;strokeColor=#B09500;" parent="431" vertex="1">
                    <mxGeometry x="480" y="350" width="170" height="60" as="geometry"/>
                </mxCell>
                <mxCell id="413" value="DRINK__COLD" style="fontFamily=Lucida Console;align=left;verticalAlign=top;fillColor=none;gradientColor=none;strokeColor=none;rounded=0;spacingLeft=4;resizable=0;movable=0;deletable=0;rotatable=0;autosize=1;" parent="412" vertex="1" connectable="0">
                    <mxGeometry y="30" width="110" height="30" as="geometry"/>
                </mxCell>
                <mxCell id="414" style="edgeStyle=none;html=1;exitX=0.5;exitY=0;exitDx=0;exitDy=0;entryX=0.5;entryY=1;entryDx=0;entryDy=0;" parent="431" source="415" target="412" edge="1">
                    <mxGeometry relative="1" as="geometry"/>
                </mxCell>
                <mxCell id="415" value="NONE" style="shape=swimlane;rotatable=0;align=center;verticalAlign=top;fontFamily=Lucida Console;startSize=30;fontSize=14;fontStyle=1;fontColor=#ffffff;fillColor=#1ba1e2;swimlaneFillColor=default;rounded=1;arcSize=15;absoluteArcSize=1;strokeColor=#006EAF;" parent="431" vertex="1">
                    <mxGeometry x="480" y="450" width="170" height="60" as="geometry"/>
                </mxCell>
                <mxCell id="416" value="DRINK__NONE" style="fontFamily=Lucida Console;align=left;verticalAlign=top;fillColor=none;gradientColor=none;strokeColor=none;rounded=0;spacingLeft=4;resizable=0;movable=0;deletable=0;rotatable=0;autosize=1;" parent="415" vertex="1" connectable="0">
                    <mxGeometry y="30" width="110" height="30" as="geometry"/>
                </mxCell>
                <mxCell id="417" style="edgeStyle=none;html=1;exitX=0.5;exitY=0;exitDx=0;exitDy=0;entryX=1;entryY=0.5;entryDx=0;entryDy=0;" parent="431" source="418" target="409" edge="1">
                    <mxGeometry relative="1" as="geometry"/>
                </mxCell>
                <mxCell id="418" value="BOOZE" style="shape=swimlane;rotatable=0;align=center;verticalAlign=top;fontFamily=Lucida Console;startSize=30;fontSize=14;fontStyle=1;fontColor=#FAFAFA;fillColor=#545454;swimlaneFillColor=default;rounded=1;arcSize=15;absoluteArcSize=1;" parent="431" vertex="1">
                    <mxGeometry x="700" y="250" width="170" height="60" as="geometry"/>
                </mxCell>
                <mxCell id="419" value="BOOZE" style="fontFamily=Lucida Console;align=left;verticalAlign=top;fillColor=none;gradientColor=none;strokeColor=none;rounded=0;spacingLeft=4;resizable=0;movable=0;deletable=0;rotatable=0;autosize=1;" parent="418" vertex="1" connectable="0">
                    <mxGeometry y="30" width="60" height="30" as="geometry"/>
                </mxCell>
                <mxCell id="420" style="edgeStyle=none;html=1;exitX=0.5;exitY=0;exitDx=0;exitDy=0;entryX=0.5;entryY=1;entryDx=0;entryDy=0;" parent="431" source="421" target="418" edge="1">
                    <mxGeometry relative="1" as="geometry"/>
                </mxCell>
                <mxCell id="421" value="BEER" style="shape=swimlane;rotatable=0;align=center;verticalAlign=top;fontFamily=Lucida Console;startSize=30;fontSize=14;fontStyle=1;fontColor=#FAFAFA;fillColor=#545454;swimlaneFillColor=default;rounded=1;arcSize=15;absoluteArcSize=1;" parent="431" vertex="1">
                    <mxGeometry x="700" y="350" width="170" height="60" as="geometry"/>
                </mxCell>
                <mxCell id="422" value="BEER" style="fontFamily=Lucida Console;align=left;verticalAlign=top;fillColor=none;gradientColor=none;strokeColor=none;rounded=0;spacingLeft=4;resizable=0;movable=0;deletable=0;rotatable=0;autosize=1;" parent="421" vertex="1" connectable="0">
                    <mxGeometry y="30" width="50" height="30" as="geometry"/>
                </mxCell>
                <mxCell id="423" style="edgeStyle=none;html=1;exitX=0.5;exitY=0;exitDx=0;exitDy=0;entryX=0.5;entryY=1;entryDx=0;entryDy=0;" parent="431" source="424" target="421" edge="1">
                    <mxGeometry relative="1" as="geometry"/>
                </mxCell>
                <mxCell id="424" value="CHEAP" style="shape=swimlane;rotatable=0;align=center;verticalAlign=top;fontFamily=Lucida Console;startSize=30;fontSize=14;fontStyle=1;fontColor=#FAFAFA;fillColor=#545454;swimlaneFillColor=default;rounded=1;arcSize=15;absoluteArcSize=1;" parent="431" vertex="1">
                    <mxGeometry x="700" y="450" width="170" height="60" as="geometry"/>
                </mxCell>
                <mxCell id="425" value="CHEAP" style="fontFamily=Lucida Console;align=left;verticalAlign=top;fillColor=none;gradientColor=none;strokeColor=none;rounded=0;spacingLeft=4;resizable=0;movable=0;deletable=0;rotatable=0;autosize=1;" parent="424" vertex="1" connectable="0">
                    <mxGeometry y="30" width="60" height="30" as="geometry"/>
                </mxCell>
                <mxCell id="406" style="edgeStyle=none;html=1;exitX=0.5;exitY=0;exitDx=0;exitDy=0;entryX=0.5;entryY=1;entryDx=0;entryDy=0;" parent="431" source="407" target="424" edge="1">
                    <mxGeometry relative="1" as="geometry"/>
                </mxCell>
                <mxCell id="527" value="" style="shape=image;verticalLabelPosition=bottom;labelBackgroundColor=default;verticalAlign=top;aspect=fixed;imageAspect=0;image=data:image/png,iVBORw0KGgoAAAANSUhEUgAAAgMAAAA5CAYAAACrpSi1AAAAAXNSR0IArs4c6QAAAARnQU1BAACxjwv8YQUAAAAJcEhZcwAADsMAAA7DAcdvqGQAABLwSURBVHhe7Z1/bJ3Veccf/7r2bRLbOLFjSpwuxU5DEjelcShLVtpAyRRK2yBNw/mDSOsY3ialSJuI1DGKKGJoIFVDkaalmzbJ2xSDps1FA7RAYUuVlLaBQkyzCBsCtmEmNo5/xFz7xjZ7nnPOe+95f957nev4Ovf7sY7ue973vOd97nvPe57nPOd5j0sa1zR9ShbX1NXShdExk8vMltZN9JuesyYXTS51x+NV6jORmFafmYDcfiC3H8jtB3L7gdx+ILefq0nuUvMJAAAAgCIFxgAAAABQ5JRsaGpxTRPU1NbQ+Ni4yWVm46Zmevtsn8lFk0vdlVXa7TEznZ3bA3L7gdx+ILcfyO0HcvuB3H6uJrnhGQAAAACKHAQQZgHk9gO5/UBuP5DbD+T2A7n9XGm54RkAAAAAihwYAwAAAECRA2MAAAAAKHJgDAAAAABFDowBAAAAoMiBMQAAAAAUOTAGAAAAgCIHxgAAAABQ5MAYAAAAAIqckhs2trpWIKyuqaaJ8QmT01xTnTRbfj73uSZ6//0Bk4tm5apVdHFy0uSiicUq1WcyOaM+M5FL3QLkdrNc5L4wETNbmspKLffMjF/uS/Fas5Vm5aqVXPdFk8tMbnJnX3cspr9HMhn+bNlAbj/5lrsikV6RLagfjOL65g30Tt85k4smrO6g9op2Ekw+5F5T4l+tL1Zh5L4U0U6m079drv3gepa7P2u5o+semdeyClH9YBBBbTCr5Yh3f+Ui3X3HBZMDYGk4N1hJf/33DSaniVqGc/TOv6BkdaPJARBOzav/SvF3f2FyS7PM7My1m+jC7j81ObDY3DT2Bj31v4+Y3PLiwnwZfff9z5pcfpYjztoYuOeuMdq6xVUUgCvG8DDR8Z/nbgys+OLNFK+rM3sA8DPS8ybFf9ZZEMbAxK1/Qmtv3G72gMVk28Bx+ssX/4jabshOgRYK4ix4/e1SOvDedWbPEvxvgpISJKSlSZdDCVeAhBSWCo0gGZEWIfGfvt/LKy0WCCAEAAAAihwYAwAAAECRA2MAAAAAKHJgDAAAAABFDowBAAAAoMiBMQAAAAAUOTAGAAAAgCIHxgAAAABQ5JTctvt217KC8XicEomEyWm+2DxAe27upa1b5sweAK4s588TnXqzlp55eYfZoykvL1efs7Oz6tPml1/YT+Ubb6TPrF5t9gDg5+O3TtPn3/kvuvZCegXBoH4wivqGNTR8fsTkogmre3RlE73V/C1q+BJWILwSbOs/Tg++eC/t2Ly8ViCcmCB6890Y/VX8a2ZPdD8YRFAbzGk54tatC1+O+PDNRE3PEu1zrybr5i0uc6/ZNnS/ShT0aHQ/SHTwp+HHbZyyajuL8ouF3AP6B5Zlq3u7ECk0WcUYWOhyxJdjDHTsuY4eiido3U9GzZ4g6uiVAyuoxeSE3r4B2n3SZCxUfY2locdtnLJCNuUj2VxPZ9pi1HPqA7r7jNlnoa5Vl6RHu4bpiNmXLzLV/eR3mmg/TWW4x4vH8Ok3Cmo54sYvt5k9uSBtME7nQ37fFDsbabC5wmSES3S0c4geMLk0q+jp9lraFQs7buOUle1sykcT3V70s0aX+zwwy9kYWPLliBeT1/5RGwKirAdMev2HbDywIupmReCCjYaD/HHoNqIjx/SuUPjc543RIHXC5gZ5RTpX0zmt6zTp1DStbW6iM3tWmUIOddTeyIp9fJ5a1tdTh9kbzCq6tU4bDVLn5XZ8AIjRNdhMrKzTbfXRoTLaf+A6enqzKeSwcwXtYsXem6ygb/rasYfNVdSqjAap8/IMAbB0FIYxwMp934/9o/b6PbzvPlb8/2l2GF77JdHerxG1c3rhf9iyN/t9iKfh21yGN8WouM8YDsP82cR5J72mdytkFNztHH/QUzcbFvfJcds4kWtYdXjr9hkyIYj3InUeG0YOIs9hvoaDMpqs40omr5yCRy5ByWaVLRhZly08SuFRlm/UfmaYNvddourGFfSk2aXYGaOWZJK6epM0EYvRrd4OOIWMfvRIq4WNisF2x3CQ/Zw3yTY2pKN/ZQ+P/tWxgM7d0NByXer8we8E/wMnGZmlryno676y02QZVcapJ+J6acqovd0p767LRiksWy7xaLjql1Fouh63nCAUNlr31/hH7UeOfUBHx0tpV4u7LTxZX0ETo1PUNTpP1XVV4fdYjOG2KqqmCjYq0m3S3T4aredA2lIjPe0cD/398tVe3M9MWJt36HqRKPZ3Jlmd51Af0e9zetwce/wjvd9VnpOUUUzxNue7OJ86zmWHzGHhVa7fPk/qduoV5Jqpczl1cZ2LSUEYA6LciZV+0Kh9+3d5RM/J5iQbDnd8iY0FTnt51H8iTIlt5XOf5TK8KYbGj9m4EAX45R/ovO19sJXmwUF9bOAxvobZp2jg695G9PwbJs8ow4TrENlV3WycvG7qHhDXOhsjdt1BqGmM6805nA6/k1aiO/m+9HyotwX57sTHUwpdZGGjyCWnwN/9EH+ctJTzCZbt0H5dtqBkXa6IcufR06mgUfvJId8oSXew03TkzDT1JEupdV3YiGuUdneO0Ymknh5Yp9yl0qmtoLVDY2ZUN0UfNda6DIKWxjJ6Th0LcxWXUks8SY+qMlx/fEXGzjGIlBtX1cOpb452tdkdfgCxClo7amQ3npOwDj4c7Y5uderhdDRRRQ8t4DsUG9L2aDwZOGp/4Cd8L11TNHXUVjNPPYOTdGQwg+Eq7Zx/zwk1PTBAm49N6vbROJfyQGjvg90+KmiXTL3J8bBpqby0F/3MpL12us37PXYaUewHuCkl/1inTr4ltkHQ/RLRhnv0se+v9Zfv/4YuYyvtA+Pp449wX/g9YyyIor/lV0THzbE/43IP60MKOb7+HNdpjifv4rr+mQ0Ic3wxKAhjYIBv0t51JpMBUWJPsELeJVPHnDoCPAdRdLEhcIgVn2N4iPfhsGe64dBNZiOAXR5vhGOYCFL34fstZccKWTwbkVMZrKxV7INl8OzjOvaKp4SNnO0sS+p6nO9hWUXJOwaQKHjn+l5EOT8hhpbA5WW6ZKeZ9y80WZcjHSvL+CmdI/N8R8Mjlm+aDpZoku7uD/AcRNCxJ04tyWl6ijtbDRsMXu9DSGefZp5OnHY6Xy0D1cSylkGjpzrS9TCsEI6OZ3An27KfGabnuPNrqc9RiSvXtX0PRJFNUW9NPAvPRDGzitbHiSYS/HtngW5rSXpZDEr1W/k9B+FI+5DprbQhfOTYBBu27vbRO5whPiQP7UV9j/Epy2vHbf70NFHQc8cj8gOsh45bI9J2Nj72scJOKXceBH2dbQuH9ttZTKt847Vc3mw7dG4yG8zuHdxP8vcQ/psV/SOs4HkcqriZy9nn/hMbFZ18fX7UNGx8HOfzf5RVZ7MwCiZmIFvs0a0gCohYGWUa0SpEQfFHkyeIsYl/5GxxvBH9kjEKTxkmpm4ZXduud5n+iGJYRtJcx3qd1XB9rWZTtp3rOSPrnTIyFwXL6Xn+UNcPQN0bZ2TOZV9gZa/abgHKerXTsS5G1eOJ9Ij9ZJJ6eYTUluVopznOj2pizj2KGpvjEVkuzFG/7TFQ55fR+lwU6eYy7pdYObRZrldO+2vM8TA8svcl5oniZTm5+JXxFauih6zrSryGHbgJLhcTq9KfNvYeGM7BaFTtY57Ou2LTJqk/+xczNHloL+qZqVlhtRVOakrDz5DYHdxX/ZbOaljx32g2o0i5+3nk3m32ZeIc98sbVpqMYF+LjY9f84d4AuxpAvEkLCYFYQyIMn5h0GSiMCPTJ+61lJh5+yBjIGG+YGUmUwXifg9yex9+Nu1Cd5JMTywY63r9fI9aP6uVvBrxi5I111fz85ZiV/P/MlXA90tG5jKd4fV4LJWsVwtHLs7xU1pGzSYfjh4tuTsmrcQyBxIWIvN04pTjek0nx0Vsd765u3YzwCPG1PREKmWIoC96tDKujttvEYQg3hcnVsX5HdXbB1kEEhYi41OetiIpP0GOjhFwyyj3d+LKv8fvGbgcOs2UhJ2eydzZLJiCMAaiRvcqyM0EnTmxBV4FJu7tyEBCB1ZWMopVI1ULmabIBZkqEAXncnuH1J2JelaY5HgaHLgOGbk7yPVkLl6mJJSbn6+1l2XuZhmc66vYCuueOK9wylSBxDikzhWWWNarhqjRvR3IZGIL7Chulfp4xBUZSJgmcGRUWxY4ygnH4wVQ53u8BZk4M0cfcbfRUGvyHiQgzf6OKRetR/ZAT0cGsje+gJeo0b0y4Ewgn44t8CvQo+NsTEQFEjoEtg89TZETeWgvuXgTGsXO4X7qPZ3VmBF6GK/wSF0p7Nstd36WbOAB8LmLJiPY1zJeAtfxK0BBGAPOfLU3kM8J9nOmBUTBBM3nb79Tu6dDAwkt2n+oPQvOdeQa4m3oyGFErKYKWBZ5vdF2e3vrFrwR9j74u0vMwj4ThCd0P6Vd+o5CFyX8At8HiZVQLnpR5izzQW68mdzuYmipc7k+a3qrIGVdfuh5exlFuUbA6p3+qtS0QGjw1skpOhEZSJjmyLEE9caq6P7U6KxOvckwMTSVwyjHnvsNP18r3bSRouZe9SYzSl1D8/ydvRHiGbwALLvMwSpUZPs8nej1zxurDtxSWk+2WG5ddb8qaL8dMKhe7cwQvAj43um4DncgnzYE1LoXalpAAgeD5/Mf6J3O8AaMg799dOypVusVPGfFemQkD+3F/8y4DR8Xa1mxs4K+xeoQu9iQ7d7BfaUVJ+DFVtiP5zBN8PUNRA//Rzog8NWz7nP/4Bvu44L3bYN8c0WNAe8cdcqdzcjI1onsd445Uf8HWQmpwEEulxrd2rCSEfd0NoGEEjBoX8e5hq0oM2KuJ6832m5v51VI+ztQFov17HuMlSwrS+ccFa1vv0HB50sgnn09GfHLHFdGt7s512tEFaSshYp33lGSo5BMNLVEO6eOsSHwkUQwS4S2ChwMC5iapJfl1a2sAgnlDQP9BoG+jn6zQFzz2XOJTiTiqfMluCrwfKU40nEB91NCvdngoF9H06+SOXVlXARmfJrOrzfl1euYwa59J9jMqbtteIp6zTEVANYlAYPW76Hem8e77Rp/LIf92qe8NaAj+9PHnah/+e200Rfydox5AyabQEJpH/Z19DVy/I3y0l74meFnk1LPDMsSsfiVBASqNwjMHL16UyBCMXz/Lq2wnfLypsEjvP/f/08fj6KR260EBN5izv0R9xFyrhNH4D0uifh68hbDYlFyw8ZW17KC1TXVNDHuDkv67W0f0+/97hC1bmUrDCjkFTvuJaNXVCwQZMS/M1eDp8CQFQhP/uoz9LdPs1VhUVlZqT5nZmbUp817Xz1IVVt2YDliEMlIzxu0+rV/o5oP0k7hoH4wiuubN9A7fedMLpqwuqfWNNOHNx2gtTcu5yd1+VBoKxDKyF8MiihPhCArEP66r5y+N3aD2RPdDwYR1AZLZUlCO0kB777EJxIKuvCliK86WDEtm8j4t/xTBMuV2dk5X9scHxtXybtf0twc/pcGyMyn3LVNTX3iajtB/WBUknXeg/YHpbC6JycvsizoZ4sBWaMgtUARI+sKPMzjHPvVxSg+nZ93tZ2ofjAoBbXBwogZWEaoqP1vE91hv6NfoKiVAu/lT9uNDwAAYElR8RAvpacA1AJDCwhEzCcwBnLEidpfDtMDMr8vssLpCAAABcQKomfs1waX2BAQYAwAAAAARQ6MAQAAAKDIgTEAAAAAFDkwBgAAAIAiB8YAAAAAUOTAGAAAAACKHBgDAAAAQJFTGo9XkZ1kWUPvvoqKclMcgKWjtLTU1zYrq3Ty7pdUUlpizgQgAm4msYoKV9sJ6gejUnl5eeD+oBRWd2UsJqIAkJmSEnfbiegHg1JQGyzZ0NTiWv+yprZGLWto89XtY9R+5wifYHZYSOPNdgHNXMrmSq51Q+7LYynkPn2miv6mc53JaeQBEGam/euLf3j7n1NZ00aT05Tw36c5SJ5L+VzLCotRtwC53UTJPTt1kWp+fpRW9p8ye4L7wSg2bmqmt89a68tGEFZ3omEjjfzOH1KsNv3/f6/G+x3EUsjdNnKKHnvzB7R61azZkwmuY17qyV5OL3JXFn52msHRUuoY+rzJRfeDQQS1wZLGNU0u2a6pq1XrFNvs/go/LKuC13lfU7+aRoY/NrloqqoqaXo6u3+kIJa2MDub3Q+VS90C5HazXOTufqnGbGnEohUSCf9DMLntTrOVRsoHlQ2jvmE1DZ/PTu5c6q4w9/tSlvcbcvvJp9zlk8MUf/cXJhfcD0axpXUT/abnrMlFE1b3zLWbKNnQbHIatJNg8iH39tkB2jb3oclpykr1zPncfPA/5Sud+YQqxtLnVMW5r0rk0A+y3CNZyp2p7n+5kO4L5TsK2d7DoDaYlTEQRT4egiDy8eWigNxuIHcwkNsN5A4GcruB3MEUstwIIAQAAACKHBgDAAAAQJEDYwAAAAAocmAMAAAAAEUN0f8DuQPBHwwFiK0AAAAASUVORK5CYII=;" parent="431" vertex="1">
                    <mxGeometry x="340" y="40" width="515" height="57" as="geometry"/>
                </mxCell>
                <mxCell id="528" value="" style="shape=image;verticalLabelPosition=bottom;labelBackgroundColor=default;verticalAlign=top;aspect=fixed;imageAspect=0;image=data:image/png,iVBORw0KGgoAAAANSUhEUgAAAMgAAAAzCAYAAADSDUdEAAAAAXNSR0IArs4c6QAAAARnQU1BAACxjwv8YQUAAAAJcEhZcwAADsMAAA7DAcdvqGQAAAcsSURBVHhe7Z1PaB1FHMcnacxLmgb7j9qCrQ0tWikRighBJDTUHqWxhzYXAz3pyUMPQk4hp1ykB0/ehHgJHmLPKlg8SEBswVIQURtbxVjbNJJKX2Jq/X7nzaSzm32z+0j6srHfD0z37c7szG9nfn9mZvteWvbu3v/Q5NDZ2WGP9+9X7TGPHTu3m7tz8+4sn6O9R8y1q9+7sziN1C25s5HcSWJyt7qjECIDGYgQEWQgQkSQgQgRQQYiRAQZiBARZCBCRJCBCBGh5cXne3NfFFYqFbOrZcksLS26K3G2dXebewsL7iyfA8/tNzd+uenO4jRSd3t7xR4ld5InTe7b/7bbYz2o32RxcbXchd+kn+2+Y051zbkrQmwO3r65z9xabnNn2cTepDdkIMP758yhg+6iECXn8uW1G0jDa5CWFiWl8qf1Qot0ISLIQISIIAMRIoIMRIgIMhAhIshAhIggAxEiQitfkuSlSkeH2bJlC4qv4wazEE2go6OSqdNhon4zZeUpgggRoZWv1/PSYrVqHjx4gOK5/ysll/EPjZn8253U4w9j2lEuTNMuK83k5/H8EF+2aHmx+alWFzN1OkzUb6asvNJFkOlvocCfGvPVO8YsuXTjdWP6odSrDAuGNIzD2CFjLvxYu1QX3Dv106N6+9xlIWKUy0Cg8P3f1JQ4VOC9h3HtFRhD6ieRpn81ZrDHmHNIF68bM+uur4IR6WOUwUca2hlnTLM4+oiSjio20vl8RJ7MulORLjTgzPsjkZGOgXLxPp83jvIroO4zQZ6tOyVXeG876ssjjKiJ8mwLeZN0VkFeojyS70eSeF6Xwv60js9d988ZPl96LHJnGU2iVAZChTcwhCzv3vcyPD9SyJcwptP7YEBIg4gOl+p16jO49y2UwUca3ycwOA7IgS8eRRQfpcJBHf6rlrd0Em24aytQ2RHpJlCvLfMmysMIw4FN3J8ujzSGMv2BYl6EPD0un/KMoryXZxx1G1yz96LMFMqGUOEMZPB1T8wlFTgNlX14Z7J8wkjQn1NPu3z0e7o85aO8ieeFk7rh60NU98/GvvaOj3nn0S+jtSyLHYvgXt+X4VhsFKUykBkM0iAGpQjs1FEMwvEunCCdz4gwMT7C4I5hILwxMkpxUMOp2tiz7kMGk99BVijJENsnMMJ0lEvcTyPF4K+UBwMonwDnPt8aPY4zVEAYF5/1A8hocc/rsX2B8xG04Rl6Ff/gGTOVDPUNc7oZOByWH4QShwpP5+MZgpGHDsrLFzL20iNHchxR3WA8GeEuQfnDvu47kryXYzGB9leckOvL3GlzE9i0u1i204MB6aMyYoALeR0owRUcerbVTj0H4SGLch0KdqzbnTgOFjFutO2nSvSqRZjlF+MgWxjFwrZm4JH57OEUxU8ps7D1weASX+2B0R1zH2OsTJUi9adhXyX6OmzLjQUjRih/0b553JTKQKigFznYeTgPyCnISqfiMymD18nEGwYU4ZibCtFLrhuoy05PUoleO7E2wVTpz9odDeENox9RwU6F3JR1vQinnj5xKrzRlMpAYlGA0wi/KPVrlXSHUuGii3WP82DX79VOPZziFaUHHvhK6uvU1pPXYfZ3yOZkDqdCRdjLSOWmK56wLRtNUvkhI2E/YarUy/rgYGZq2TWcJ68H13tWibPWYzmwrxJ9HbZVZyzKQrmmWG7umV4s20Uc1wxuSsXBylof2LktBr7uYj3gXGoRzDYYlc4X9FpDkCWxSEVU47RgAjLUJVBitld4GoF+GYNs7/roiDYvBPdy/ZTIB6FDWQXqCxfRZPLrmgGHa6Q0oRJz06DoFIvrkbCvp7FOC+9NjwVJ73JtFBtiIOn5JpNXNO5W+R0ln+d3m+h5OfDcARnI8sIY3NMY+CKLdSpV2I5vI2sHLRO073dbrJwYYHrYegpmNwFwPODbQwRg+0XXTSOom4tu2xbaPM17g3VJIp/1c1co4u256LY7V6683aFK7RKGjOBZwyktd9u4CzeFyJiH36b3fX0BEY/3+nVJOp+JO3KNRtrHQeGf/TnV9ps5u2fWHO5Z+9t0sXZsVIWRxZS6zDBC0MhiEWstPISa8kcb3lt4oXk/+8NfNTnM7TvRXDDV8P+7wEc4/96jDF42D75DmYLe+EW3Ne6cCLdWvIE0/VdNxAYAIyjrFKQI/p2Ml/1xG8d6oggi/pcoggjRBGQgQkSQgQgRQQYiRAQZiBARZCBCRJCBCBFBBiJEhJYTAydzXxS2tbWZE9UfzBtbf3ZX1hn+QQe+2dlsSO7m0qDc83MPzftbXzPzrZ3uSjbUb7K8vGyPIQ29SV/+Z3UFWXR0Vkz1frG/U0d279llbt+6487iNFJ321PuwSV3gidJ7s8WuprzJ9hIVgVZ7Ni53dydm3dn+RztPWKuXS32hfJG6pbc2UjuJDG5tQYRIoIMRIgIMhAhIshAhKiLMf8BGWugH1ATVyEAAAAASUVORK5CYII=;" parent="431" vertex="1">
                    <mxGeometry x="40" y="190" width="200" height="51" as="geometry"/>
                </mxCell>
                <mxCell id="531" style="edgeStyle=none;html=1;exitX=0.5;exitY=0;exitDx=0;exitDy=0;entryX=1;entryY=0.25;entryDx=0;entryDy=0;fontFamily=Helvetica;fontSize=12;fontColor=rgb(240, 240, 240);" parent="431" source="529" target="409" edge="1">
                    <mxGeometry relative="1" as="geometry"/>
                </mxCell>
                <mxCell id="529" value="NONE" style="shape=swimlane;rotatable=0;align=center;verticalAlign=top;fontFamily=Lucida Console;startSize=30;fontSize=14;fontStyle=1;fontColor=#ffffff;fillColor=#1ba1e2;swimlaneFillColor=default;rounded=1;arcSize=15;absoluteArcSize=1;strokeColor=#006EAF;" parent="431" vertex="1">
                    <mxGeometry x="900" y="250" width="170" height="60" as="geometry"/>
                </mxCell>
                <mxCell id="530" value="FOOD_BEV__NONE" style="fontFamily=Lucida Console;align=left;verticalAlign=top;fillColor=none;gradientColor=none;strokeColor=none;rounded=0;spacingLeft=4;resizable=0;movable=0;deletable=0;rotatable=0;autosize=1;" parent="529" vertex="1" connectable="0">
                    <mxGeometry y="30" width="130" height="30" as="geometry"/>
                </mxCell>
                <mxCell id="534" style="edgeStyle=none;html=1;exitX=0.5;exitY=0;exitDx=0;exitDy=0;entryX=0.5;entryY=1;entryDx=0;entryDy=0;fontFamily=Helvetica;fontSize=12;fontColor=rgb(240, 240, 240);" parent="431" source="532" target="529" edge="1">
                    <mxGeometry relative="1" as="geometry"/>
                </mxCell>
                <mxCell id="532" value="NONE" style="shape=swimlane;rotatable=0;align=center;verticalAlign=top;fontFamily=Lucida Console;startSize=30;fontSize=14;fontStyle=1;fontColor=#ffffff;fillColor=#1ba1e2;swimlaneFillColor=default;rounded=1;arcSize=15;absoluteArcSize=1;strokeColor=#006EAF;" parent="431" vertex="1">
                    <mxGeometry x="900" y="350" width="170" height="60" as="geometry"/>
                </mxCell>
                <mxCell id="533" value="FOOD_BEV__NONE__NONE" style="fontFamily=Lucida Console;align=left;verticalAlign=top;fillColor=none;gradientColor=none;strokeColor=none;rounded=0;spacingLeft=4;resizable=0;movable=0;deletable=0;rotatable=0;autosize=1;" parent="532" vertex="1" connectable="0">
                    <mxGeometry y="30" width="170" height="30" as="geometry"/>
                </mxCell>
                <mxCell id="535" value="&lt;b&gt;$NOTES&lt;/b&gt;&lt;br&gt;Uses highest unique ancestor." style="shape=rectangle;rounded=1;arcSize=15;absoluteArcSize=1;align=left;verticalAlign=top;whiteSpace=wrap;html=1;spacingLeft=4;strokeWidth=1;strokeColor=default;fillColor=#fff2cc;fontColor=#000000;gradientColor=#ffd966;" vertex="1" parent="431">
                    <mxGeometry x="30" y="57" width="250" height="40" as="geometry"/>
                </mxCell>
            </root>
        </mxGraphModel>
    </diagram>
</mxfile>